<svg viewBox="0 0 40 40" xmlns="http://www.w3.org/2000/svg">
  <g fill="#46d62b">
    <path d="M20 3C25.5 6.5 26.5 13 20 17.5 13.5 13 14.5 6.5 20 3Z"/>
    <path d="M20 3C25.5 6.5 26.5 13 20 17.5 13.5 13 14.5 6.5 20 3Z" transform="rotate(72 20 19)"/>
    <path d="M20 3C25.5 6.5 26.5 13 20 17.5 13.5 13 14.5 6.5 20 3Z" transform="rotate(144 20 19)"/>
    <path d="M20 3C25.5 6.5 26.5 13 20 17.5 13.5 13 14.5 6.5 20 3Z" transform="rotate(216 20 19)"/>
    <path d="M20 3C25.5 6.5 26.5 13 20 17.5 13.5 13 14.5 6.5 20 3Z" transform="rotate(288 20 19)"/>
  </g>
  <circle cx="20" cy="19" r="5.6" fill="#eef2ff"/>
  <g fill="#232d8c">
    <circle cx="20" cy="19" r="2.1"/>
    <circle cx="24" cy="19" r="1.5"/><circle cx="22" cy="22.4" r="1.5"/><circle cx="18" cy="22.4" r="1.5"/><circle cx="16" cy="19" r="1.5"/><circle cx="18" cy="15.6" r="1.5"/><circle cx="22" cy="15.6" r="1.5"/>
  </g>
</svg>
